<svg xmlns="http://www.w3.org/2000/svg" version="1.1" xmlns:xlink="http://www.w3.org/1999/xlink" xmlns:svgjs="http://svgjs.dev/svgjs" style="overflow: hidden; height: 85vh;" viewBox="0 0 1920 1080" class="overflow-hidden rounded-md drop-shadow-lg transition duration-300"><rect width="1920" height="1080" fill="#dfa1a1"/><g clip-path="url(&quot;#SvgjsClipPath1186&quot;)"><g transform="matrix(-2.112515728529184e-16,-1.15,1.15,-2.112515728529184e-16,336.1984500885012,1640.7782176017763)"><path d="M0,-1080C2.980311810869587,-991.0937356212896,18.75537271931675,-723.7324819098351,17.881870865217522,-546.5624137277381C17.008369011118294,-369.3923455456411,-8.948006580645945,-206.9280973591656,-5.24101112459536,-16.979590907418356C-1.5340156685447752,172.9689155443289,33.574084996947846,412.1062078154796,40.12384360152103,593.1286249827455C46.673602206094216,774.1510421500113,37.77088281882601,896.9809365808279,34.057540502843736,1069.1549120961765C30.344198186861462,1241.3288876115253,23.520046456101344,1444.3649634242001,17.843789705627387,1626.1724780748373C12.16753295515343,1807.9799927254744,2.973964950937898,2071.028746345806,0,2160L 1920 2160 L 1920 -1080 Z" fill="url(&quot;#SvgjsLinearGradient1176&quot;)"/><path d="M192,-1080C186.52524333697704,-965.4843778879263,156.853294916816,-602.8411091108791,159.15146002186233,-392.90626732755777C161.44962512690867,-182.97142554423644,202.8271629176852,-38.50798318778584,205.78899063027802,179.60905069992802C208.75081834287084,397.7260845876419,181.53836860728913,684.0442143062636,176.92242629741935,915.7959359987253C172.30648398754957,1147.5476576911872,175.5804078206293,1362.7520368544863,178.0933367710594,1570.1193808546986C180.6062657214895,1777.486724854911,189.68222279517656,2061.6865634757833,192,2160L 1920 2160 L 1920 -1080 Z" fill="url(&quot;#SvgjsLinearGradient1177&quot;)"/><path d="M384,-1080C381.865284147412,-990.7374759742696,378.97473859060057,-724.3998257536862,371.1917048844719,-544.4248558456178C363.40867117834324,-364.4498859375494,330.26112860061926,-190.49649231366968,337.3017977632279,-0.15018055158958532C344.34246692583656,190.1961312104905,396.3540820434515,409.3488923343717,413.4357198601239,597.6530147268628C430.51735767679634,785.9571371193539,438.3652154606143,960.0200466031988,439.79162466326227,1129.674553803357C441.21803386591023,1299.329061003515,431.29277918655544,1443.859150228371,421.99417507601174,1615.5800579278114C412.69557096546805,1787.3009656272518,390.3323625126686,2069.2633429879684,384,2160L 1920 2160 L 1920 -1080 Z" fill="url(&quot;#SvgjsLinearGradient1178&quot;)"/><path d="M576,-1080C575.1217609744202,-976.8198335822603,560.2856466212617,-674.9968285000596,570.7305658465212,-460.91900149356184C581.1754850717808,-246.8411744870641,646.8757768516249,-15.58930223740984,638.6695153515573,204.46696203898634C630.4632538514896,424.52322631538254,538.6161793060494,633.1843626428134,521.4929968461154,859.4185841648152C504.3698143861813,1085.652805686817,526.8459200663054,1345.1087218651328,535.9304205919528,1561.872291170997C545.0149211176002,1778.6358604768611,569.3217367653255,2060.3120485284994,576,2160L 1920 2160 L 1920 -1080 Z" fill="url(&quot;#SvgjsLinearGradient1179&quot;)"/><path d="M768,-1080C763.0521231547541,-1001.6166626291416,735.3003029790473,-769.4968063571794,738.3127389285243,-609.6999757748497C741.3251748780012,-449.90314519252,789.6652874375682,-283.4150056669754,786.0746156968621,-121.21901650602177C782.483943956156,40.97697265493187,716.5169288042914,219.16867518510762,716.7687084842878,363.4759591908721C717.0204881642842,507.7832431966366,779.9635264948195,599.1790698850463,787.5852937768404,744.6246875285653C795.2070610588614,890.0703051720844,772.7116287511915,1076.4604857251538,762.4993121764139,1236.1496650519866C752.2869956016364,1395.8388443788194,725.3946130242439,1548.7847076648939,726.3113943281749,1702.7597634895628C727.2281756321058,1856.7348193142318,761.0518990546958,2083.7932939149273,768,2160L 1920 2160 L 1920 -1080 Z" fill="url(&quot;#SvgjsLinearGradient1180&quot;)"/><path d="M960,-1080C969.5511381774029,-1018.9836716453697,1013.8422471233188,-841.8641414440037,1017.3068290644177,-713.9020298722183C1020.7714110055166,-585.939918300433,986.2559555519637,-447.7533010480644,980.7874916465936,-312.2273305692877C975.3190277412235,-176.70136009051097,993.177202137942,-41.943731732105874,984.4960456321971,99.25379300044196C975.8148891264523,240.4513177329898,930.0483860268951,385.8832051110661,928.700552612124,534.9578178259993C927.352719197353,684.0324305409325,979.9374098648613,853.6203615094497,976.4090451435711,993.7014692900412C972.880680422281,1133.7825770706327,909.5402145625113,1249.060462144469,907.5303642843834,1375.4444645095484C905.5205140062554,1501.8284668746278,955.6050041888676,1621.2462275654425,964.3499434748037,1752.0054834805178C973.0948827607398,1882.764739395593,960.724990579134,2092.0009139134195,960,2160L 1920 2160 L 1920 -1080 Z" fill="url(&quot;#SvgjsLinearGradient1181&quot;)"/><path d="M1152,-1080C1161.387105038758,-953.3679171586406,1217.748914480471,-595.455816849653,1208.322630232547,-320.20750295184365C1198.896345984623,-44.95918905403431,1094.5017820680582,297.6489714487381,1095.4422945124556,571.489883386856C1096.382806956853,845.3307953249739,1204.539420651008,1058.0862825746733,1213.965704898932,1322.837968676864C1223.391989146856,1587.5896547790546,1162.3276174831553,2020.4729947794774,1152,2160L 1920 2160 L 1920 -1080 Z" fill="url(&quot;#SvgjsLinearGradient1182&quot;)"/><path d="M1344,-1080C1351.0659494691265,-1003.5918902307611,1391.3250035499868,-770.4006968137933,1386.3956968147593,-621.5513413845669C1381.4663900795317,-472.70198595534043,1316.319222398104,-337.1184551831397,1314.4241595886353,-186.90386742464142C1312.5290967791666,-36.689279666143136,1366.6578628704815,112.21841351154254,1375.0253199579472,279.7361851664228C1383.392777045413,447.25395682130306,1370.5101940369684,663.901750955556,1364.6289021134298,818.2027625046401C1358.7476101898912,972.5037740537241,1353.432500388962,1066.143613486153,1339.7375684167162,1205.5422544609266C1326.0426364444704,1344.9408954357002,1281.748905016075,1495.518317430103,1282.4593102799556,1654.594608353282C1283.1697155438362,1813.670899276461,1333.7432183799926,2075.7657680588804,1344,2160L 1920 2160 L 1920 -1080 Z" fill="url(&quot;#SvgjsLinearGradient1183&quot;)"/><path d="M1536,-1080C1533.439434439163,-984.7652655341577,1516.0320582426014,-678.8698487394915,1520.636606634978,-508.59159320494655C1525.2411550273548,-338.3133376704015,1561.2705671613555,-242.04576370920532,1563.6272903542608,-58.33046679272971C1565.9840135471661,125.3848301237459,1545.291933540882,395.97618531151295,1534.77694579241,593.7001882939071C1524.2619580439382,791.4241912763013,1506.4139262193355,960.9769888182749,1500.5373638634296,1128.013551101635C1494.6608015075237,1295.0501133849948,1493.6071323008791,1423.9218205110064,1499.5175716569743,1595.9195619940672C1505.4280110130694,1767.917303477128,1529.9195952761625,2065.986593665678,1536,2160L 1920 2160 L 1920 -1080 Z" fill="url(&quot;#SvgjsLinearGradient1184&quot;)"/><path d="M1728,-1080C1720.953385508788,-1013.1715209545453,1687.8321468435686,-841.3705014939777,1685.7203130527278,-679.0291257272713C1683.608479261887,-516.6877499605649,1716.2245543846084,-264.67750397943774,1715.3289972549546,-105.95174539976189C1714.4334401253009,52.77401317991398,1688.4705832467237,121.81895116448428,1680.3469702748046,273.3254257507839C1672.2233573028855,424.83190033708354,1665.8261371433507,634.7248251443132,1666.5873194234402,803.0871021180358C1667.3485017035298,971.4493790917584,1677.0571940151108,1131.8674638711902,1684.9140639553416,1283.4990875931194C1692.7709338955724,1435.1307113150485,1706.5475497240493,1566.7933590484636,1713.7285390648258,1712.8768444496104C1720.9095284056023,1858.9603298507573,1725.621423177471,2085.479474074935,1728,2160L 1920 2160 L 1920 -1080 Z" fill="url(&quot;#SvgjsLinearGradient1185&quot;)"/></g></g><defs><linearGradient x1="0.1" y1="0" x2="0" y2="1" id="SvgjsLinearGradient1176"><stop stop-color="#dfa1a1" offset="0"/><stop stop-color="#dfa1ab" offset="0"/></linearGradient><linearGradient x1="0.1" y1="0" x2="0" y2="1" id="SvgjsLinearGradient1177"><stop stop-color="#e3acac" offset="0"/><stop stop-color="#e3acb5" offset="0.1"/></linearGradient><linearGradient x1="0.1" y1="0" x2="0" y2="1" id="SvgjsLinearGradient1178"><stop stop-color="#e7b8b8" offset="0"/><stop stop-color="#e7b8c0" offset="0.2"/></linearGradient><linearGradient x1="0.1" y1="0" x2="0" y2="1" id="SvgjsLinearGradient1179"><stop stop-color="#eac3c3" offset="0"/><stop stop-color="#eac3c9" offset="0.3"/></linearGradient><linearGradient x1="0.1" y1="0" x2="0" y2="1" id="SvgjsLinearGradient1180"><stop stop-color="#eecece" offset="0"/><stop stop-color="#eeced3" offset="0.4"/></linearGradient><linearGradient x1="0.1" y1="0" x2="0" y2="1" id="SvgjsLinearGradient1181"><stop stop-color="#f2d9d9" offset="0"/><stop stop-color="#f2d9dd" offset="0.5"/></linearGradient><linearGradient x1="0.1" y1="0" x2="0" y2="1" id="SvgjsLinearGradient1182"><stop stop-color="#f6e5e5" offset="0"/><stop stop-color="#f6e5e8" offset="0.6"/></linearGradient><linearGradient x1="0.1" y1="0" x2="0" y2="1" id="SvgjsLinearGradient1183"><stop stop-color="#faf0f0" offset="0"/><stop stop-color="#faf0f2" offset="0.7"/></linearGradient><linearGradient x1="0.1" y1="0" x2="0" y2="1" id="SvgjsLinearGradient1184"><stop stop-color="#fefbfb" offset="0"/><stop stop-color="#fefbfb" offset="0.8"/></linearGradient><linearGradient x1="0.1" y1="0" x2="0" y2="1" id="SvgjsLinearGradient1185"><stop stop-color="#ffffff" offset="0"/><stop stop-color="#ffffff" offset="0.9"/></linearGradient><clipPath id="SvgjsClipPath1186"><rect width="1920" height="1080"/></clipPath></defs></svg>